<svg xmlns="http://www.w3.org/2000/svg" width="17.982" height="16.624" viewBox="0 0 17.982 16.624">
  <g id="Buy" transform="translate(0.86 0.86)">
    <path id="Stroke_1" data-name="Stroke 1" d="M.676,0a.657.657,0,0,1,.677.635.657.657,0,0,1-.677.634A.656.656,0,0,1,0,.635.656.656,0,0,1,.676,0Z" transform="translate(3.458 13.745)" fill="none" stroke="#161c40" stroke-linecap="round" stroke-linejoin="round" stroke-miterlimit="10" stroke-width="1.5"/>
    <path id="Stroke_3" data-name="Stroke 3" d="M.677,0a.657.657,0,0,1,.677.635.657.657,0,0,1-.677.634A.657.657,0,0,1,0,.635.657.657,0,0,1,.677,0Z" transform="translate(13.413 13.745)" fill="none" stroke="#161c40" stroke-linecap="round" stroke-linejoin="round" stroke-miterlimit="10" stroke-width="1.5"/>
    <path id="Stroke_5" data-name="Stroke 5" d="M0,0,1.84.3l.852,9.517a1.558,1.558,0,0,0,1.59,1.371h9.655A1.567,1.567,0,0,0,15.517,9.9l.84-5.44a1.139,1.139,0,0,0-1.174-1.272H2.136" transform="translate(0)" fill="none" stroke="#161c40" stroke-linecap="round" stroke-linejoin="round" stroke-miterlimit="10" stroke-width="1.5"/>
    <path id="Stroke_7" data-name="Stroke 7" d="M0,.5H2.454" transform="translate(10.065 5.759)" fill="none" stroke="#161c40" stroke-linecap="round" stroke-linejoin="round" stroke-miterlimit="10" stroke-width="1.5"/>
  </g>
</svg>
