<svg xmlns="http://www.w3.org/2000/svg" width="18.844" height="16.932" viewBox="0 0 18.844 16.932">
  <path id="Heart" d="M8.934,15.861h0L8.7,15.727a33.771,33.771,0,0,1-5.671-4.141A10.785,10.785,0,0,1,.35,7.58a6.086,6.086,0,0,1,.127-4.4A5.29,5.29,0,0,1,3.85.225,4.217,4.217,0,0,1,4.642.051h.107A5.472,5.472,0,0,1,5.5,0h.1a5.939,5.939,0,0,1,1.63.275h.053a.33.33,0,0,1,.081.049,3.241,3.241,0,0,1,.561.218l.338.142a2.378,2.378,0,0,1,.254.158c.051.035.095.064.129.084l.029.016a2.2,2.2,0,0,1,.237.141A5.791,5.791,0,0,1,12.3,0h.038a5.534,5.534,0,0,1,1.657.242,5.236,5.236,0,0,1,3.344,2.936,6.217,6.217,0,0,1,.137,4.4,10.592,10.592,0,0,1-2.679,4.015,34.1,34.1,0,0,1-5.637,4.14l-.222.126ZM13.3,2.6a.721.721,0,0,0-.674.453.676.676,0,0,0,.445.859,1.4,1.4,0,0,1,.953,1.311v.025a.682.682,0,0,0,.169.518.764.764,0,0,0,.508.242.712.712,0,0,0,.7-.634v-.1a2.761,2.761,0,0,0-1.879-2.638A.732.732,0,0,0,13.3,2.6Z" transform="translate(0.515 0.5)" fill="none" stroke="#c4a757" stroke-width="1"/>
</svg>
